# xmcd
#
# Track frame offsets: 
#        150
#        9592
#        22034
#        40332
#        50529
#        60796
#        70238
#        87930
#        101497
#        113414
#        123377
#        138746
#        152915
#
# Disc length: 2371 seconds
#
# Revision: 0
# Processed by: cddbd v1.5.1PL0 Copyright (c) Steve Scherf et al.
# Submitted via: ExactAudioCopy v0.90b4
#
DISCID=a709410d
DTITLE=Prairie Rose Wranglers - The Beautiful Prairie Rose
DYEAR=2000
DGENRE=Country
TTITLE0=Prairie Rose Wranglers -The Beautiful Prairie Rose - 01 - Lean
TTITLE0=in' On The Old Top Rail
TTITLE1=Prairie Rose Wranglers -The Beautiful Prairie Rose - 02 - The 
TTITLE1=Beautiful Prairie Rose
TTITLE2=Prairie Rose Wranglers -The Beautiful Prairie Rose - 03 - Stre
TTITLE2=ets of Laredo (Cowboy's Lament) 
TTITLE3=Prairie Rose Wranglers -The Beautiful Prairie Rose - 04 - Call
TTITLE3=Of The Wild
TTITLE4=Prairie Rose Wranglers -The Beautiful Prairie Rose - 05 - Ligh
TTITLE4=ts Of Old Santa Fe
TTITLE5=Prairie Rose Wranglers -The Beautiful Prairie Rose - 06 - I'm 
TTITLE5=My Own Grandpa
TTITLE6=Prairie Rose Wranglers -The Beautiful Prairie Rose - 07 - Cool
TTITLE6=Water
TTITLE7=Prairie Rose Wranglers -The Beautiful Prairie Rose - 08 - Cycl
TTITLE7=one Song
TTITLE8=Prairie Rose Wranglers -The Beautiful Prairie Rose - 09 - Blan
TTITLE8=ket Me With Western Skies
TTITLE9=Prairie Rose Wranglers -The Beautiful Prairie Rose - 10 - Deep
TTITLE9=In The Heart of Texas
TTITLE10=Prairie Rose Wranglers -The Beautiful Prairie Rose - 11 - the
TTITLE10=Big Circle
TTITLE11=Prairie Rose Wranglers -The Beautiful Prairie Rose -12 - Slow
TTITLE11=ly Wandering
TTITLE12=Prairie Rose Wranglers -The Beautiful Prairie Rose - 13 - Old
TTITLE12=Chisholm Trail/Redwing
EXTD=
EXTT0=
EXTT1=
EXTT2=
EXTT3=
EXTT4=
EXTT5=
EXTT6=
EXTT7=
EXTT8=
EXTT9=
EXTT10=
EXTT11=
EXTT12=
PLAYORDER=
